<?xml version="1.0" encoding="UTF-8" standalone="no"?>
<!-- Created with Inkscape (http://www.inkscape.org/) -->

<svg
   width="210mm"
   height="297mm"
   viewBox="0 0 210 297"
   version="1.1"
   id="svg5"
   xml:space="preserve"
   inkscape:version="1.2.1 (9c6d41e410, 2022-07-14)"
   sodipodi:docname="nomadBees.svg"
   xmlns:inkscape="http://www.inkscape.org/namespaces/inkscape"
   xmlns:sodipodi="http://sodipodi.sourceforge.net/DTD/sodipodi-0.dtd"
   xmlns="http://www.w3.org/2000/svg"
   xmlns:svg="http://www.w3.org/2000/svg"><sodipodi:namedview
     id="namedview7"
     pagecolor="#505050"
     bordercolor="#ffffff"
     borderopacity="1"
     inkscape:showpageshadow="0"
     inkscape:pageopacity="0"
     inkscape:pagecheckerboard="1"
     inkscape:deskcolor="#505050"
     inkscape:document-units="mm"
     showgrid="false"
     inkscape:zoom="3.7083362"
     inkscape:cx="200.62906"
     inkscape:cy="606.87594"
     inkscape:window-width="1350"
     inkscape:window-height="1040"
     inkscape:window-x="130"
     inkscape:window-y="0"
     inkscape:window-maximized="0"
     inkscape:current-layer="layer1" /><defs
     id="defs2" /><g
     inkscape:label="Layer 1"
     inkscape:groupmode="layer"
     id="layer1"><text
       xml:space="preserve"
       style="font-size:7.05556px;font-family:'Bee Honey';-inkscape-font-specification:'Bee Honey, Normal';fill:#28170b;stroke-width:0.264583"
       x="37.967743"
       y="141.58064"
       id="text165"><tspan
         sodipodi:role="line"
         id="tspan163"
         style="stroke-width:0.264583;fill:#28170b"></tspan></text><text
       xml:space="preserve"
       style="font-size:7.05556px;font-family:'Bee Honey';-inkscape-font-specification:'Bee Honey, Normal';fill:#000000;stroke-width:0.264583"
       x="36.815704"
       y="154.39763"
       id="text383"><tspan
         sodipodi:role="line"
         id="tspan381"
         style="fill:#000000;stroke-width:0.264583"
         x="36.815704"
         y="154.39763"></tspan><tspan
         sodipodi:role="line"
         style="fill:#000000;stroke-width:0.264583"
         id="tspan385"
         x="36.815704"
         y="163.21707">     .</tspan><tspan
         sodipodi:role="line"
         style="fill:#000000;stroke-width:0.264583"
         x="36.815704"
         y="172.03653"
         id="tspan389">nomad</tspan></text><text
       xml:space="preserve"
       style="font-size:7.05556px;font-family:'Bee Honey';-inkscape-font-specification:'Bee Honey, Normal';fill:#ffcc00;stroke-width:0.264583"
       x="51.712112"
       y="171.93646"
       id="text443"><tspan
         sodipodi:role="line"
         id="tspan441"
         style="stroke-width:0.264583"
         x="51.712112"
         y="171.93646">Bees</tspan></text><g
       id="g1276"
       transform="matrix(0.06850085,0,0,0.05986203,26.44432,127.80076)"><g
         id="g1193">
	<g
   id="g1191">
		
		
		
		
		
		
		
		
		
		
		
		
		
		
		
		
		
		<path
   d="m 218.36249,660.70546 c -2.30135,-0.21924 -3.93434,0.23532 -6.09585,0.49278 -2.22411,0.4477 -4.3229,0.516 -6.68686,0.4856 -1.18192,-0.0147 -0.8249,1.60539 0.29463,1.80967 2.23917,0.40824 4.07407,0.2417 6.1733,0.17355 2.42603,-0.15968 4.85238,-0.31889 7.13804,-0.95513 0.97935,-0.2729 0.62254,-1.89357 -0.82326,-2.00647 z"
   id="path1167"
   style="stroke-width:0.387242" />
		<path
   d="m 234.0728,650.82925 c -0.0151,-0.85594 -1.60093,-1.44632 -2.11449,-0.78718 -1.47789,1.7866 -2.89389,3.38512 -5.30456,4.39981 -0.71548,0.37114 -0.10941,1.23426 0.8082,1.15052 3.20359,-0.7195 6.20473,-1.72688 6.61085,-4.76315 z"
   id="path1169"
   style="stroke-width:0.387242" />
		<path
   d="m 239.04019,634.82871 c -0.54379,-1.05242 -2.31652,-1.07488 -2.30136,-0.21925 0.24708,2.85445 -0.36019,5.60334 -0.90562,8.16276 -0.24915,0.75724 1.60102,1.44602 1.85017,0.68878 1.40108,-2.45338 2.92587,-5.2857 1.35681,-8.63229 z"
   id="path1171"
   style="stroke-width:0.387242" />
		<path
   d="m 236.01682,616.06589 c -0.54378,-1.05242 -2.17677,-0.59786 -1.8973,0.35617 0.71384,3.24071 2.28291,6.58731 3.26106,9.92642 0.0775,0.66632 1.52358,0.77969 1.44613,0.11336 -0.0606,-3.42254 -0.65035,-7.04203 -2.80989,-10.39595 z"
   id="path1173"
   style="stroke-width:0.387242" />
		<path
   d="m 225.15096,606.70835 c -1.81821,-2.58936 -5.50132,-6.72297 -9.51312,-7.15399 -1.11952,-0.20427 -1.49325,0.93158 -0.4983,1.51448 1.4613,0.969 3.10945,1.37007 4.57074,2.33908 1.46129,0.96899 2.79801,2.31662 3.80812,3.75514 0.66836,0.67382 1.97486,0.30986 1.63256,-0.45471 z"
   id="path1175"
   style="stroke-width:0.387242" />
		<path
   d="m 206.96118,598.87386 c -2.3788,-0.88557 -4.61786,-1.29412 -6.63974,-0.55934 -1.69527,0.64387 -4.6195,2.31771 -3.79624,4.32418 0.27948,0.95402 1.66331,1.2567 2.6431,0.98396 0.71549,-0.37114 0.84006,-0.74976 1.02692,-1.31768 0.18687,-0.56793 0.70033,-1.22676 1.41582,-1.5979 1.16665,-0.84067 3.18852,-1.57545 5.10099,-1.07598 0.79239,0.29534 1.04164,-0.46221 0.24915,-0.75724 z"
   id="path1177"
   style="stroke-width:0.387242" />
		<path
   d="m 205.83171,620.34097 c -0.88555,-1.81715 -2.68859,-3.55088 -3.63686,-5.17888 -1.14942,-1.91538 -1.70837,-3.82344 -2.26732,-5.7315 -0.27946,-0.95404 -2.0522,-0.97649 -2.03704,-0.12086 0.0607,3.42254 1.7375,9.14672 5.91934,11.76602 0.99495,0.5829 2.3632,0.0298 2.02188,-0.73478 z"
   id="path1179"
   style="stroke-width:0.387242" />
		<path
   d="m 224.43796,636.83004 c -1.86535,-1.54441 -3.91754,-2.52089 -6.10948,-3.9744 -2.9853,-1.74885 -5.25468,-3.86867 -7.13518,-6.26872 -0.80766,-1.15067 -2.76769,-0.60535 -1.95959,0.54547 2.76604,4.2172 8.56407,9.13814 14.1146,11.20448 1.05735,0.39328 2.02231,-0.73462 1.08965,-1.50683 z"
   id="path1181"
   style="stroke-width:0.387242" />
		<path
   d="m 250.28426,632.21471 c -1.633,0.45456 -2.33332,1.68132 -3.23566,2.62039 -1.29123,1.21928 -2.90907,2.52948 -4.66706,3.3625 -1.30596,0.36381 -0.0938,2.09004 1.21258,1.7264 1.95958,-0.54548 3.71672,-1.37882 5.2104,-2.31023 1.49369,-0.93142 3.3754,-2.14338 3.60938,-3.75626 -0.0147,-0.85547 -1.14985,-1.91554 -2.12964,-1.6428 z"
   id="path1183"
   style="stroke-width:0.387242" />
		<path
   d="m 261.64145,621.14292 c -4.1212,0.80324 -6.61105,4.76376 -7.34334,7.89111 -0.31143,0.94654 1.53875,1.63533 2.11449,0.78718 0.69989,-1.22693 1.72724,-2.54445 2.69187,-3.67283 1.29124,-1.21928 3.31311,-1.95406 4.34003,-3.27174 0.31143,-0.94655 -0.82359,-2.00693 -1.80305,-1.73372 z"
   id="path1185"
   style="stroke-width:0.387242" />
		<path
   d="m 275.51511,615.0454 c -1.52359,-0.77969 -3.15657,-0.32513 -4.40111,-0.15095 -1.57071,0.26525 -2.73736,1.10593 -3.57742,1.85568 -0.84005,0.74975 0.7614,2.19593 1.60103,1.44601 1.04208,-0.46204 1.82029,-1.02233 3.12624,-1.38614 1.24411,-0.17434 2.89226,0.22674 3.73275,-0.52286 0.32616,-0.0911 0.24915,-0.75723 -0.48149,-1.24174 z"
   id="path1187"
   style="stroke-width:0.387242" />
		<path
   d="m 291.74868,616.20135 c 0.0943,-2.08988 -0.0135,-4.46748 -0.44789,-6.75415 -0.0774,-0.66633 -0.68352,-1.52944 -1.47645,-1.82463 -5.3485,-1.77863 -10.47982,-2.41392 -15.65826,-2.00427 -1.83502,0.16685 -1.07362,2.36278 0.96298,2.48348 4.19865,-0.13692 8.14859,0.48355 12.11282,1.95935 0.0926,1.52196 0.18522,3.04391 0.27783,4.56587 0.0308,1.71143 -0.73229,3.12735 0.21555,4.75519 0.54378,1.05244 1.98991,1.1658 2.70539,0.79466 1.69572,-0.64371 1.46304,-2.64315 1.30803,-3.9755 z"
   id="path1189"
   style="stroke-width:0.387242" />
	</g>
</g><g
         id="g1195">
</g><g
         id="g1197">
</g><g
         id="g1199">
</g><g
         id="g1201">
</g><g
         id="g1203">
</g><g
         id="g1205">
</g><g
         id="g1207">
</g><g
         id="g1209">
</g><g
         id="g1211">
</g><g
         id="g1213">
</g><g
         id="g1215">
</g><g
         id="g1217">
</g><g
         id="g1219">
</g><g
         id="g1221">
</g><g
         id="g1223">
</g></g><g
       id="g1034"
       transform="matrix(0.005252,0.00757711,-0.0076423,0.00642134,47.372233,159.8022)"
       inkscape:transform-center-x="-1.1729668"
       inkscape:transform-center-y="-0.22045597"><polyline
         style="fill:#b17e15"
         points="271.675,504.161 240.327,504.161 240.327,446.019 271.675,446.019 271.675,504.161 "
         id="polyline887" /><path
         id="SVGCleanerId_0"
         style="fill:#c8e5fa"
         d="M 181.058,181.914 C 160.95,160.082 138.65,145.717 114.779,139.219 93.274,133.363 71.595,134.331 52.078,142.014 20.262,154.541 -0.18,182.618 0.001,213.547 c 0.104,17.88 7.185,35.349 20.476,50.514 10.824,12.352 25.56,23.057 43.94,31.942 -8.25,20.6 -3.948,44.52 12.739,63.265 12.005,13.485 30.473,23.431 50.868,23.431 12.691,0 26.132,-3.854 39.217,-13.105 z" /><path
         id="SVGCleanerId_1"
         style="fill:#211915"
         d="m 170.049,81.868 c -20.41,0 -37.015,-16.604 -37.015,-37.014 0,-20.41 16.605,-37.014 37.015,-37.014 20.41,0 37.014,16.604 37.014,37.014 0,20.41 -16.603,37.014 -37.014,37.014 z m 0,-42.682 c -3.125,0 -5.669,2.543 -5.669,5.668 0,3.125 2.543,5.668 5.669,5.668 3.124,0 5.667,-2.543 5.667,-5.668 0,-3.125 -2.542,-5.668 -5.667,-5.668 z" /><path
         id="SVGCleanerId_2"
         style="fill:#211915"
         d="m 232.683,124.717 h -31.347 c 0,-7.176 -7.931,-37.932 -25.441,-53.645 l 20.934,-23.33 c 25.027,22.457 35.854,61.841 35.854,76.975 z" /><path
         id="SVGCleanerId_3"
         style="fill:#211915"
         d="m 341.953,81.868 c -20.41,0 -37.014,-16.604 -37.014,-37.014 0,-20.41 16.604,-37.014 37.014,-37.014 20.41,0 37.015,16.604 37.015,37.014 0,20.41 -16.605,37.014 -37.015,37.014 z m 0,-42.682 c -3.124,0 -5.668,2.543 -5.668,5.668 0,3.125 2.543,5.668 5.668,5.668 3.125,0 5.669,-2.543 5.669,-5.668 0,-3.125 -2.544,-5.668 -5.669,-5.668 z" /><path
         id="SVGCleanerId_4"
         style="fill:#211915"
         d="M 310.666,124.717 H 279.32 c 0,-15.134 10.826,-54.518 35.854,-76.975 l 20.934,23.33 c -17.512,15.714 -25.442,46.469 -25.442,53.645 z" /><path
         id="SVGCleanerId_5"
         style="fill:#211915"
         d="m 256.001,304.408 c -56.323,0 -102.145,-45.823 -102.145,-102.145 0,-56.321 45.823,-102.144 102.145,-102.144 56.323,0 102.144,45.823 102.144,102.144 -10e-4,56.322 -45.821,102.145 -102.144,102.145" /><path
         id="SVGCleanerId_6"
         style="fill:#ffab00"
         d="m 369.892,347.802 c 0,62.899 -50.991,113.889 -113.892,113.889 -62.901,0 -113.89,-50.991 -113.89,-113.889 0,-62.901 50.991,-113.892 113.891,-113.892 62.9,0 113.891,50.991 113.891,113.892" /><path
         id="SVGCleanerId_7"
         style="fill:#211915"
         d="m 358.786,396.911 h -205.57 c 5.595,11.69 13.124,22.277 22.176,31.347 h 161.216 c 9.053,-9.07 16.583,-19.657 22.178,-31.347" /><path
         id="SVGCleanerId_8"
         style="fill:#211915"
         d="M 368.812,332.127 H 143.188 c -0.705,5.125 -1.078,10.356 -1.078,15.674 0,5.318 0.373,10.549 1.078,15.672 h 225.623 c 0.706,-5.123 1.08,-10.354 1.08,-15.672 0,-5.318 -0.372,-10.549 -1.079,-15.674" /><path
         id="SVGCleanerId_9"
         style="fill:#211915"
         d="m 175.392,267.347 c -9.051,9.068 -16.58,19.657 -22.176,31.347 H 358.785 C 353.19,287.004 345.66,276.415 336.608,267.347 H 175.392" /><polyline
         style="fill:#b17e15"
         points="271.675,504.161 240.327,504.161 240.327,446.019 271.675,446.019 271.675,504.161 "
         id="polyline899" /><g
         id="g902">
	<path
   id="SVGCleanerId_0_1_"
   style="fill:#c8e5fa"
   d="M 181.058,181.914 C 160.95,160.082 138.65,145.717 114.779,139.219 93.274,133.363 71.595,134.331 52.078,142.014 20.262,154.541 -0.18,182.618 0.001,213.547 c 0.104,17.88 7.185,35.349 20.476,50.514 10.824,12.352 25.56,23.057 43.94,31.942 -8.25,20.6 -3.948,44.52 12.739,63.265 12.005,13.485 30.473,23.431 50.868,23.431 12.691,0 26.132,-3.854 39.217,-13.105 z" />
</g><path
         style="fill:#94aabb"
         d="m 330.944,181.914 c 20.108,-21.832 42.408,-36.197 66.279,-42.695 21.505,-5.856 43.185,-4.888 62.701,2.795 31.816,12.527 52.257,40.605 52.077,71.534 -0.105,17.88 -7.185,35.349 -20.476,50.514 -10.824,12.352 -25.56,23.057 -43.94,31.942 8.25,20.6 3.948,44.52 -12.738,63.265 -12.005,13.485 -30.473,23.431 -50.868,23.431 -12.691,0 -26.132,-3.854 -39.217,-13.105 z"
         id="path904" /><g
         id="g907">
	<path
   id="SVGCleanerId_1_1_"
   style="fill:#211915"
   d="m 170.049,81.868 c -20.41,0 -37.015,-16.604 -37.015,-37.014 0,-20.41 16.605,-37.014 37.015,-37.014 20.41,0 37.014,16.604 37.014,37.014 0,20.41 -16.603,37.014 -37.014,37.014 z m 0,-42.682 c -3.125,0 -5.669,2.543 -5.669,5.668 0,3.125 2.543,5.668 5.669,5.668 3.124,0 5.667,-2.543 5.667,-5.668 0,-3.125 -2.542,-5.668 -5.667,-5.668 z" />
</g><g
         id="g910">
	<path
   id="SVGCleanerId_2_1_"
   style="fill:#211915"
   d="m 232.683,124.717 h -31.347 c 0,-7.176 -7.931,-37.932 -25.441,-53.645 l 20.934,-23.33 c 25.027,22.457 35.854,61.841 35.854,76.975 z" />
</g><g
         id="g913">
	<path
   id="SVGCleanerId_3_1_"
   style="fill:#211915"
   d="m 341.953,81.868 c -20.41,0 -37.014,-16.604 -37.014,-37.014 0,-20.41 16.604,-37.014 37.014,-37.014 20.41,0 37.015,16.604 37.015,37.014 0,20.41 -16.605,37.014 -37.015,37.014 z m 0,-42.682 c -3.124,0 -5.668,2.543 -5.668,5.668 0,3.125 2.543,5.668 5.668,5.668 3.125,0 5.669,-2.543 5.669,-5.668 0,-3.125 -2.544,-5.668 -5.669,-5.668 z" />
</g><g
         id="g916">
	<path
   id="SVGCleanerId_4_1_"
   style="fill:#211915"
   d="M 310.666,124.717 H 279.32 c 0,-15.134 10.826,-54.518 35.854,-76.975 l 20.934,23.33 c -17.512,15.714 -25.442,46.469 -25.442,53.645 z" />
</g><g
         id="g919">
	<path
   id="SVGCleanerId_5_1_"
   style="fill:#211915"
   d="m 256.001,304.408 c -56.323,0 -102.145,-45.823 -102.145,-102.145 0,-56.321 45.823,-102.144 102.145,-102.144 56.323,0 102.144,45.823 102.144,102.144 -10e-4,56.322 -45.821,102.145 -102.144,102.145" />
</g><g
         id="g922">
	<path
   id="SVGCleanerId_6_1_"
   style="fill:#ffab00"
   d="m 369.892,347.802 c 0,62.899 -50.991,113.889 -113.892,113.889 -62.901,0 -113.89,-50.991 -113.89,-113.889 0,-62.901 50.991,-113.892 113.891,-113.892 62.9,0 113.891,50.991 113.891,113.892" />
</g><path
         style="fill:#bd7f00"
         d="m 369.892,347.802 c 0,62.899 -50.991,113.889 -113.892,113.889 0,-72.961 0,-169.603 0,-227.781 62.901,0.001 113.892,50.991 113.892,113.892"
         id="path924" /><g
         id="g927">
	<path
   id="SVGCleanerId_7_1_"
   style="fill:#211915"
   d="m 358.786,396.911 h -205.57 c 5.595,11.69 13.124,22.277 22.176,31.347 h 161.216 c 9.053,-9.07 16.583,-19.657 22.178,-31.347" />
</g><g
         id="g930">
	<path
   id="SVGCleanerId_8_1_"
   style="fill:#211915"
   d="M 368.812,332.127 H 143.188 c -0.705,5.125 -1.078,10.356 -1.078,15.674 0,5.318 0.373,10.549 1.078,15.672 h 225.623 c 0.706,-5.123 1.08,-10.354 1.08,-15.672 0,-5.318 -0.372,-10.549 -1.079,-15.674" />
</g><g
         id="g933">
	<path
   id="SVGCleanerId_9_1_"
   style="fill:#211915"
   d="m 175.392,267.347 c -9.051,9.068 -16.58,19.657 -22.176,31.347 H 358.785 C 353.19,287.004 345.66,276.415 336.608,267.347 H 175.392" />
</g><path
         style="fill:#835e10"
         d="m 271.675,460.622 c -5.123,0.705 -10.357,1.07 -15.674,1.07 0,25.588 0,42.47 0,42.47 h 15.674 v -43.54"
         id="path935" /><g
         id="g943">
	<path
   style="fill:#191310"
   d="M 358.786,396.911 H 256.001 c 0,10.831 0,21.378 0,31.347 H 336.6 c 9.053,-9.069 16.585,-19.656 22.181,-31.347"
   id="path937" />
	<path
   style="fill:#191310"
   d="M 368.812,332.127 H 256.001 c 0,10.318 0,20.852 0,31.347 h 112.811 c 0.661,-4.798 1.031,-9.69 1.075,-14.662 0,-0.039 0,-0.077 10e-4,-0.115 0,-0.084 0.001,-0.167 0.001,-0.251 0,-0.074 10e-4,-0.147 10e-4,-0.222 0,-0.034 0,-0.069 0,-0.103 0,-0.108 0,-0.213 0,-0.32 v 0 0 c 0,-0.108 0,-0.213 0,-0.32 0,-0.034 0,-0.069 0,-0.104 0,-0.074 0,-0.147 -10e-4,-0.222 0,-0.084 -0.001,-0.167 -0.002,-0.251 0,-0.039 0,-0.076 -10e-4,-0.115 -0.043,-4.969 -0.412,-9.862 -1.074,-14.662"
   id="path939" />
	<path
   style="fill:#191310"
   d="m 336.601,267.347 h -80.6 c 0,9.604 0,20.175 0,31.347 h 102.784 c -5.455,-11.399 -12.75,-21.75 -21.503,-30.666 l 0.001,0.008 c -0.227,-0.231 -0.453,-0.459 -0.682,-0.689"
   id="path941" />
</g><g
         id="g945">
</g><g
         id="g947">
</g><g
         id="g949">
</g><g
         id="g951">
</g><g
         id="g953">
</g><g
         id="g955">
</g><g
         id="g957">
</g><g
         id="g959">
</g><g
         id="g961">
</g><g
         id="g963">
</g><g
         id="g965">
</g><g
         id="g967">
</g><g
         id="g969">
</g><g
         id="g971">
</g><g
         id="g973">
</g></g></g></svg>
